<svg xmlns="http://www.w3.org/2000/svg" width="15.588" height="15.585" viewBox="0 0 15.588 15.585"><path d="M7.721,35.622a4,4,0,1,0,4,4A3.989,3.989,0,0,0,7.721,35.622Zm0,6.593a2.6,2.6,0,1,1,2.6-2.6,2.6,2.6,0,0,1-2.6,2.6Zm5.091-6.757a.932.932,0,1,1-.932-.932A.93.93,0,0,1,12.812,35.458Zm2.646.946A4.612,4.612,0,0,0,14.2,33.139a4.642,4.642,0,0,0-3.265-1.259c-1.287-.073-5.143-.073-6.43,0a4.636,4.636,0,0,0-3.265,1.255A4.627,4.627,0,0,0-.02,36.4c-.073,1.287-.073,5.143,0,6.43A4.612,4.612,0,0,0,1.239,46.1,4.648,4.648,0,0,0,4.5,47.355c1.287.073,5.143.073,6.43,0A4.612,4.612,0,0,0,14.2,46.1a4.642,4.642,0,0,0,1.259-3.265C15.531,41.544,15.531,37.691,15.458,36.4ZM13.8,44.211a2.63,2.63,0,0,1-1.481,1.481,17.176,17.176,0,0,1-4.594.313,17.309,17.309,0,0,1-4.594-.313,2.63,2.63,0,0,1-1.481-1.481,17.176,17.176,0,0,1-.313-4.594,17.309,17.309,0,0,1,.313-4.594,2.63,2.63,0,0,1,1.481-1.481,17.176,17.176,0,0,1,4.594-.313,17.31,17.31,0,0,1,4.594.313A2.63,2.63,0,0,1,13.8,35.023a17.175,17.175,0,0,1,.313,4.594A17.166,17.166,0,0,1,13.8,44.211Z" transform="translate(0.075 -31.825)" fill="#4bb200"/></svg>