<svg xmlns="http://www.w3.org/2000/svg" width="19.283" height="14.462" viewBox="0 0 19.283 14.462"><path d="M17.475,64H1.808A1.808,1.808,0,0,0,0,65.808V76.654a1.808,1.808,0,0,0,1.808,1.808H17.475a1.808,1.808,0,0,0,1.808-1.808V65.808A1.808,1.808,0,0,0,17.475,64Zm0,1.808v1.537c-.844.688-2.191,1.757-5.069,4.011-.634.5-1.891,1.7-2.765,1.684-.874.014-2.131-1.185-2.765-1.684C4,69.1,2.652,68.032,1.808,67.345V65.808ZM1.808,76.654v-6.99c.863.687,2.087,1.652,3.952,3.113.823.648,2.265,2.078,3.882,2.07,1.609.009,3.032-1.4,3.881-2.069,1.865-1.461,3.089-2.425,3.953-3.113v6.99Z" transform="translate(0 -64)" fill="#4bb200"/></svg>