<svg xmlns="http://www.w3.org/2000/svg" width="20.119" height="21.194" viewBox="0 0 20.119 21.194"><path d="M14.934,135.38,5.98,126.426a1.106,1.106,0,0,1,0-1.564l1.044-1.044a1.106,1.106,0,0,1,1.562,0l7.13,7.1,7.13-7.1a1.106,1.106,0,0,1,1.562,0l1.044,1.044a1.106,1.106,0,0,1,0,1.564L16.5,135.38A1.106,1.106,0,0,1,14.934,135.38Z" transform="translate(-5.656 -123.494)" fill="#fff" opacity="0.49"/><path d="M11.212,130.612,5.85,125.25a.662.662,0,0,1,0-.936l.625-.625a.662.662,0,0,1,.935,0l4.269,4.249,4.269-4.249a.662.662,0,0,1,.935,0l.625.625a.662.662,0,0,1,0,.936l-5.362,5.362A.662.662,0,0,1,11.212,130.612Z" transform="translate(-1.62 -109.612)" fill="#fff" opacity="0.49"/></svg>