<?xml version="1.0" standalone="no"?>
<!DOCTYPE svg PUBLIC "-//W3C//DTD SVG 20010904//EN"
 "http://www.w3.org/TR/2001/REC-SVG-20010904/DTD/svg10.dtd">
<svg version="1.0" xmlns="http://www.w3.org/2000/svg"
 width="445.000000pt" height="445.000000pt" viewBox="0 0 445.000000 445.000000"
 preserveAspectRatio="xMidYMid meet">
<metadata>
Created by potrace 1.11, written by Peter Selinger 2001-2013
</metadata>
<g transform="translate(0.000000,445.000000) scale(0.100000,-0.100000)"
fill="#000000" stroke="none">
<path d="M3462 3975 c-4 -5 -7 -344 -7 -752 l0 -743 497 0 498 0 0 550 c0 528
-1 553 -20 611 -61 179 -220 311 -405 335 -77 10 -557 9 -563 -1z"/>
<path d="M2670 3701 c-187 -60 -316 -202 -355 -392 -4 -18 -9 -2274 -6 -2542
l1 -48 289 1 c247 1 297 4 347 19 180 55 301 181 350 366 11 40 14 296 14
1333 l0 1283 -292 -2 c-249 0 -301 -3 -348 -18z"/>
<path d="M60 3700 l-45 -5 1 -1280 c0 -704 4 -1295 8 -1313 13 -66 49 -144 91
-199 54 -72 81 -95 158 -138 106 -58 145 -64 459 -65 l283 -1 -1 1293 c0 1015
-3 1303 -13 1338 -47 166 -180 302 -341 351 -57 17 -99 20 -311 22 -134 1
-264 0 -289 -3z"/>
<path d="M1170 1932 c-7 -3 -10 -263 -10 -754 l0 -750 278 4 c271 4 279 5 344
30 187 74 325 230 368 417 16 66 21 1039 6 1049 -10 5 -969 9 -986 4z"/>
<path d="M3821 1684 c-172 -46 -318 -201 -354 -377 -77 -367 260 -687 618
-588 146 41 254 131 322 267 37 76 38 80 40 201 2 111 0 131 -22 190 -55 144
-175 257 -324 303 -76 24 -200 26 -280 4z"/>
</g>
</svg>
